<svg id="Layer_1" viewBox="0 0 24 24" xmlns="http://www.w3.org/2000/svg" data-name="Layer 1"><path d="m23.945 9.964-.073-.836-.836-.073c-2.927-.257-5.116.39-6.501 1.92-1.655 1.83-1.6 4.339-1.483 5.417l-2.052 2.052v-6.593c.796-.614 2.873-2.463 3.007-5.145.106-2.128-1.021-4.199-3.35-6.154l-.643-.54-.643.54c-2.329 1.955-3.457 4.026-3.35 6.154.132 2.649 2.162 4.487 2.979 5.124v6.614l-2.052-2.052c.117-1.077.172-3.587-1.483-5.417-1.385-1.53-3.575-2.178-6.501-1.92l-.836.073-.073.836c-.256 2.929.39 5.117 1.92 6.501 1.407 1.272 3.219 1.534 4.471 1.534.531 0 .942-.046 1.199-.083l3.355 3.355v2.74h2v-2.74l3.355-3.355c.256.037.667.083 1.199.083 1.252 0 3.065-.262 4.471-1.534 1.53-1.385 2.176-3.572 1.92-6.501zm-16.966 6.013c-.849.067-2.526.033-3.662-.995-.904-.818-1.346-2.155-1.316-3.981 1.837-.042 3.164.412 3.981 1.316 1.032 1.14 1.062 2.811.997 3.66zm3.04-9.372c-.064-1.285.607-2.61 1.996-3.946 1.389 1.336 2.06 2.661 1.996 3.946-.082 1.629-1.325 2.899-1.996 3.469-.672-.571-1.915-1.84-1.996-3.469zm10.665 8.376c-1.141 1.032-2.812 1.062-3.66.997-.063-.851-.032-2.526.995-3.662.818-.904 2.143-1.346 3.981-1.316.03 1.826-.412 3.163-1.316 3.981z" fill="purple"/></svg>